<svg xmlns="http://www.w3.org/2000/svg" width="336" height="147.161" viewBox="0 0 336 147.161">
  <g id="Groupe_378" data-name="Groupe 378" transform="translate(-18.4 -18.441)">
    <path id="Tracé_238" data-name="Tracé 238" d="M59.791,18.441l-14.429,30L39.881,37.481,22.644,74.375H88.58Z" transform="translate(10.82 0)" fill="#189389"/>
    <path id="Tracé_239" data-name="Tracé 239" d="M58.9,117.981l-40.5-81h81Z" transform="translate(0 47.271)" fill="#2f83a4"/>
    <path id="Tracé_240" data-name="Tracé 240" d="M38.65,36.981H18.4l40.5,81,10.125-20.25Z" transform="translate(0 47.271)" fill="#003144"/>
    <g id="Groupe_378-2" data-name="Groupe 378" transform="translate(124.809 84.099)">
      <path id="Tracé_241" data-name="Tracé 241" d="M56.964,38.867H50.476V42.13h5.516v1.856H50.476v5.378h-2.1V37.011h8.586Z" transform="translate(-48.378 -36.752)" fill="#2f83a4"/>
      <path id="Tracé_242" data-name="Tracé 242" d="M52.687,48.077a6.721,6.721,0,0,1-1.651-4.721,6.588,6.588,0,0,1,1.651-4.65,5.465,5.465,0,0,1,4.181-1.768A5.561,5.561,0,0,1,61.1,38.706a6.622,6.622,0,0,1,1.647,4.65A6.719,6.719,0,0,1,61.1,48.077,5.483,5.483,0,0,1,56.868,49.9,5.359,5.359,0,0,1,52.687,48.077Zm6.922-1.3a5.329,5.329,0,0,0,1.022-3.418,5.184,5.184,0,0,0-1.022-3.33,3.374,3.374,0,0,0-2.726-1.249,3.29,3.29,0,0,0-2.7,1.249,5.183,5.183,0,0,0-1.022,3.33,5.329,5.329,0,0,0,1.022,3.418,3.289,3.289,0,0,0,2.7,1.285A3.343,3.343,0,0,0,59.608,46.774Z" transform="translate(-41.601 -36.938)" fill="#2f83a4"/>
      <path id="Tracé_243" data-name="Tracé 243" d="M62.783,37.011h2.045V49.364H62.645l-5.658-8.988v8.988H54.942V37.011h2.151l5.69,9.023Z" transform="translate(-31.642 -36.752)" fill="#2f83a4"/>
      <path id="Tracé_244" data-name="Tracé 244" d="M62.951,37.011A5.4,5.4,0,0,1,67.186,38.6a6.667,6.667,0,0,1,1.423,4.59,6.675,6.675,0,0,1-1.43,4.565,5.332,5.332,0,0,1-4.21,1.612H58.461V37.011Zm-.188,10.567a3.521,3.521,0,0,0,2.843-1.051,5.145,5.145,0,0,0,.884-3.34,5.1,5.1,0,0,0-.909-3.372,3.715,3.715,0,0,0-2.957-1.051H60.559v8.814Z" transform="translate(-22.67 -36.752)" fill="#2f83a4"/>
      <path id="Tracé_245" data-name="Tracé 245" d="M70.779,49.364,69.7,46.275H64.88l-1.093,3.088H61.55l4.579-12.353h2.41l4.512,12.353ZM65.5,44.508H69.1l-1.061-3.07-.728-2.431-.728,2.431Z" transform="translate(-14.795 -36.752)" fill="#2f83a4"/>
      <path id="Tracé_246" data-name="Tracé 246" d="M74.519,37.011v1.856h-3.9v10.5h-2.1v-10.5H64.594V37.011Z" transform="translate(-7.034 -36.752)" fill="#2f83a4"/>
      <path id="Tracé_247" data-name="Tracé 247" d="M67.894,49.364V37.011h2.1V49.364Z" transform="translate(1.38 -36.752)" fill="#2f83a4"/>
      <path id="Tracé_248" data-name="Tracé 248" d="M70.738,48.077a6.735,6.735,0,0,1-1.647-4.721,6.6,6.6,0,0,1,1.647-4.65,5.475,5.475,0,0,1,4.181-1.768,5.569,5.569,0,0,1,4.235,1.768,6.638,6.638,0,0,1,1.647,4.65,6.735,6.735,0,0,1-1.647,4.721A5.491,5.491,0,0,1,74.919,49.9,5.364,5.364,0,0,1,70.738,48.077Zm6.922-1.3a5.309,5.309,0,0,0,1.026-3.418,5.165,5.165,0,0,0-1.026-3.33,3.367,3.367,0,0,0-2.723-1.249,3.29,3.29,0,0,0-2.7,1.249,5.165,5.165,0,0,0-1.026,3.33,5.309,5.309,0,0,0,1.026,3.418,3.289,3.289,0,0,0,2.7,1.285A3.336,3.336,0,0,0,77.66,46.774Z" transform="translate(4.432 -36.938)" fill="#2f83a4"/>
      <path id="Tracé_249" data-name="Tracé 249" d="M80.837,37.011h2.048V49.364H80.7l-5.655-8.988v8.988H73V37.011h2.151l5.69,9.023Z" transform="translate(14.388 -36.752)" fill="#2f83a4"/>
    </g>
    <g id="Groupe_379" data-name="Groupe 379" transform="translate(244.86 152.642)">
      <path id="Tracé_250" data-name="Tracé 250" d="M90.785,58.177H84.3V61.44h5.52V63.3H84.3v5.378H82.2V56.321h8.586Z" transform="translate(-82.199 -56.062)" fill="#2f83a4"/>
      <path id="Tracé_251" data-name="Tracé 251" d="M86.5,67.383a6.732,6.732,0,0,1-1.647-4.717,6.6,6.6,0,0,1,1.647-4.65,5.47,5.47,0,0,1,4.181-1.768,5.569,5.569,0,0,1,4.235,1.768,6.638,6.638,0,0,1,1.647,4.65,6.732,6.732,0,0,1-1.647,4.717,5.494,5.494,0,0,1-4.235,1.825A5.362,5.362,0,0,1,86.5,67.383Zm6.922-1.3a5.309,5.309,0,0,0,1.026-3.418,5.158,5.158,0,0,0-1.026-3.33A3.367,3.367,0,0,0,90.7,58.087,3.29,3.29,0,0,0,88,59.336a5.158,5.158,0,0,0-1.026,3.33A5.309,5.309,0,0,0,88,66.084a3.286,3.286,0,0,0,2.7,1.281A3.333,3.333,0,0,0,93.427,66.084Z" transform="translate(-75.42 -56.248)" fill="#2f83a4"/>
      <path id="Tracé_252" data-name="Tracé 252" d="M93.534,69.021a5.183,5.183,0,0,1-3.521-1.093,3.906,3.906,0,0,1-1.249-3.106v-8.5h2.1v8.551q0,2.311,2.691,2.307,2.673,0,2.673-2.307V56.321h2.1v8.5a3.906,3.906,0,0,1-1.249,3.106A5.289,5.289,0,0,1,93.534,69.021Z" transform="translate(-65.463 -56.062)" fill="#2f83a4"/>
      <path id="Tracé_253" data-name="Tracé 253" d="M100.03,56.321h2.048V68.674H99.892l-5.655-8.988v8.988H92.189V56.321H94.34l5.69,9.02Z" transform="translate(-56.729 -56.062)" fill="#2f83a4"/>
      <path id="Tracé_254" data-name="Tracé 254" d="M100.2,56.321a5.4,5.4,0,0,1,4.235,1.587,6.66,6.66,0,0,1,1.42,4.59,6.641,6.641,0,0,1-1.43,4.561,5.331,5.331,0,0,1-4.206,1.615H95.708V56.321Zm-.192,10.564a3.523,3.523,0,0,0,2.847-1.047,5.145,5.145,0,0,0,.884-3.34,5.1,5.1,0,0,0-.909-3.376,3.729,3.729,0,0,0-2.96-1.047H97.809v8.81Z" transform="translate(-47.757 -56.062)" fill="#2f83a4"/>
      <path id="Tracé_255" data-name="Tracé 255" d="M108.026,68.674l-1.076-3.088h-4.82l-1.093,3.088H98.8l4.579-12.353h2.414L110.3,68.674Zm-5.271-4.859h3.589l-1.058-3.07-.728-2.428-.728,2.428Z" transform="translate(-39.881 -56.062)" fill="#2f83a4"/>
      <path id="Tracé_256" data-name="Tracé 256" d="M111.767,56.321v1.856h-3.9v10.5h-2.1v-10.5h-3.922V56.321Z" transform="translate(-32.117 -56.062)" fill="#2f83a4"/>
      <path id="Tracé_257" data-name="Tracé 257" d="M105.141,68.674V56.321h2.1V68.674Z" transform="translate(-23.706 -56.062)" fill="#2f83a4"/>
      <path id="Tracé_258" data-name="Tracé 258" d="M107.986,67.383a6.732,6.732,0,0,1-1.647-4.717,6.6,6.6,0,0,1,1.647-4.65,5.47,5.47,0,0,1,4.181-1.768,5.556,5.556,0,0,1,4.231,1.768,6.624,6.624,0,0,1,1.651,4.65,6.718,6.718,0,0,1-1.651,4.717,5.481,5.481,0,0,1-4.231,1.825A5.362,5.362,0,0,1,107.986,67.383Zm6.922-1.3a5.329,5.329,0,0,0,1.022-3.418,5.177,5.177,0,0,0-1.022-3.33,3.367,3.367,0,0,0-2.723-1.249,3.3,3.3,0,0,0-2.708,1.249,5.177,5.177,0,0,0-1.022,3.33,5.329,5.329,0,0,0,1.022,3.418,3.3,3.3,0,0,0,2.708,1.281A3.333,3.333,0,0,0,114.908,66.084Z" transform="translate(-20.652 -56.248)" fill="#2f83a4"/>
      <path id="Tracé_259" data-name="Tracé 259" d="M118.085,56.321h2.048V68.674h-2.187l-5.655-8.988v8.988h-2.048V56.321H112.4l5.69,9.02Z" transform="translate(-10.696 -56.062)" fill="#2f83a4"/>
    </g>
    <g id="Groupe_380" data-name="Groupe 380" transform="translate(124.032 104.499)">
      <path id="Tracé_260" data-name="Tracé 260" d="M72.893,42.685h8.331L68.381,80.474H60.952L48.159,42.685h8.334l5.04,16.452,3.237,12.473,3.237-12.473Z" transform="translate(-48.159 -42.685)" fill="#003144"/>
      <path id="Tracé_261" data-name="Tracé 261" d="M75.472,73.457q-.58-2.652-.582-2.758-2.918,3.551-8.437,3.553a10.072,10.072,0,0,1-6.9-2.282,7.64,7.64,0,0,1-2.6-6.049q0-6.634,8.334-8.281l9.552-1.91V53.715q0-2.971-4.618-2.971a5.835,5.835,0,0,0-3.45.848,3.875,3.875,0,0,0-1.43,2.758l-6.847-.1q.687-8.812,11.675-8.81Q82,45.437,82,55.624v12.1a11.959,11.959,0,0,0,1.061,5.733Zm-2.36-6.4a6.024,6.024,0,0,0,1.725-4.536V60.509L67.829,62q-3.557.687-3.553,3.447a2.89,2.89,0,0,0,1.139,2.389,4.956,4.956,0,0,0,3.159.9A6.242,6.242,0,0,0,73.111,67.061Z" transform="translate(-25.746 -35.669)" fill="#003144"/>
      <path id="Tracé_262" data-name="Tracé 262" d="M87.745,48.02a10.186,10.186,0,0,1,2.364,7.113V73.5H82.623V56.83a5.2,5.2,0,0,0-1.033-3.45,3.655,3.655,0,0,0-2.946-1.221,4.757,4.757,0,0,0-3.873,1.832,7.455,7.455,0,0,0-1.487,4.856V73.5H65.8V46.111h7.323l.106,3.716a8.645,8.645,0,0,1,7.908-4.405A8.471,8.471,0,0,1,87.745,48.02Z" transform="translate(-3.179 -35.707)" fill="#003144"/>
      <path id="Tracé_263" data-name="Tracé 263" d="M94.047,46.111h6.634v27.7q0,5.356-3.425,8.253t-9.63,2.893q-5.734,0-8.945-2.389a9.184,9.184,0,0,1-3.635-6.847h6.9q.634,3.663,5.52,3.663,3.078,0,4.405-1.356a5.661,5.661,0,0,0,1.328-4.11v-3.77A9.139,9.139,0,0,1,85.766,73.5a10.369,10.369,0,0,1-8.437-3.979q-3.29-3.929-3.29-10.244,0-6.368,3.29-10.138a10.671,10.671,0,0,1,8.437-3.713,8.984,8.984,0,0,1,8.015,4.086Zm-2.2,18.841a8.873,8.873,0,0,0,1.725-5.679,8.873,8.873,0,0,0-1.725-5.679,5.669,5.669,0,0,0-8.888-.053,8.923,8.923,0,0,0-1.7,5.733,8.923,8.923,0,0,0,1.7,5.733,5.669,5.669,0,0,0,8.888-.053Z" transform="translate(17.822 -35.707)" fill="#003144"/>
      <path id="Tracé_264" data-name="Tracé 264" d="M100.162,45.616h7.483V73h-7.323l-.106-3.716a8.649,8.649,0,0,1-7.909,4.405,8.479,8.479,0,0,1-6.609-2.6,10.2,10.2,0,0,1-2.36-7.113V45.616H90.82V62.281a5.174,5.174,0,0,0,1.036,3.45A3.648,3.648,0,0,0,94.8,66.953a4.754,4.754,0,0,0,3.876-1.832,7.475,7.475,0,0,0,1.487-4.856Z" transform="translate(41.531 -35.212)" fill="#003144"/>
      <path id="Tracé_265" data-name="Tracé 265" d="M109.977,73.457c-.39-1.768-.582-2.687-.582-2.758q-2.923,3.551-8.441,3.553a10.069,10.069,0,0,1-6.9-2.282,7.64,7.64,0,0,1-2.6-6.049q0-6.634,8.331-8.281l9.556-1.91V53.715q0-2.971-4.618-2.971a5.82,5.82,0,0,0-3.45.848,3.89,3.89,0,0,0-1.434,2.758l-6.847-.1q.692-8.812,11.678-8.81,11.836,0,11.834,10.187v12.1a11.959,11.959,0,0,0,1.061,5.733Zm-2.36-6.4a6.024,6.024,0,0,0,1.725-4.536V60.509L102.334,62q-3.557.687-3.557,3.447a2.884,2.884,0,0,0,1.143,2.389,4.952,4.952,0,0,0,3.156.9A6.245,6.245,0,0,0,107.616,67.061Z" transform="translate(62.228 -35.669)" fill="#003144"/>
      <path id="Tracé_266" data-name="Tracé 266" d="M116.122,45.716v6.847c-.919-.071-1.434-.106-1.541-.106q-6.794,0-6.794,7.908V73.687H100.3V46.3h7.326l-.107,3.663q1.805-4.616,6.208-4.618A7.274,7.274,0,0,1,116.122,45.716Z" transform="translate(84.792 -35.898)" fill="#003144"/>
      <path id="Tracé_267" data-name="Tracé 267" d="M124.71,42.685H132.2V80.474h-6.634l-.266-3.4a8.972,8.972,0,0,1-7.962,4.3,10.409,10.409,0,0,1-8.491-4.086q-3.29-4.084-3.29-10.613,0-6.474,3.184-10.4a9.944,9.944,0,0,1,8.015-3.873,9.689,9.689,0,0,1,7.958,3.447Zm-1.352,29.88a9.359,9.359,0,0,0,1.725-5.889,9.362,9.362,0,0,0-1.7-5.867,5.616,5.616,0,0,0-8.917,0,9.363,9.363,0,0,0-1.7,5.867,9.463,9.463,0,0,0,1.7,5.889,5.544,5.544,0,0,0,8.888,0Z" transform="translate(98.172 -42.685)" fill="#003144"/>
    </g>
    <path id="Tracé_268" data-name="Tracé 268" d="M72.89,42.686h8.332L68.378,80.472H60.949L48.159,42.686h8.332l5.042,16.451L64.77,71.609l3.237-12.472Z" transform="translate(75.872 61.817)" fill="#2f83a4"/>
    <path id="Tracé_269" data-name="Tracé 269" d="M60.949,80.472,48.159,42.686h8.332l5.042,16.451,5.539,21.334Z" transform="translate(75.872 61.817)" fill="#003548"/>
  </g>
</svg>
